<?xml version="1.0" ?><svg xmlns="http://www.w3.org/2000/svg" xmlns:xlink="http://www.w3.org/1999/xlink" version="1.1" viewBox="0 0 512 512" style="enable-background:new 0 0 512 512;" xml:space="preserve"><g id="_x30_2_x2C__Apron_x2C__Chef_x2C__Food_and_Restaurant_x2C__Equipment_x2C__Uniform"><g><rect x="176" y="311" width="160" height="20"/><path d="M176,391c0,11.028,8.972,20,20,20h120c11.028,0,20-8.972,20-20v-40H176V391z"/><path d="M441.733,281H431v-40c0-5.523-4.478-10-10-10c-34.626,0-65-32.71-65-70V31c0-16.542-13.458-30-30-30s-30,13.458-30,30v90    h-80V31c0-16.542-13.458-30-30-30s-30,13.458-30,30v130c0,37.29-30.374,70-65,70c-5.522,0-10,4.477-10,10v40H70.267    C43.101,281,21,303.101,21,330.267V441c0,5.522,4.478,10,10,10s10-4.478,10-10V330.267C41,314.129,54.129,301,70.267,301H81v137.4    c0,40.031,32.568,72.6,72.6,72.6H358.4c40.031,0,72.6-32.568,72.6-72.6V301h10.733C457.871,301,471,314.129,471,330.267V441    c0,5.522,4.478,10,10,10s10-4.478,10-10V330.267C491,303.101,468.899,281,441.733,281z M356,391c0,22.056-17.944,40-40,40H196    c-22.056,0-40-17.944-40-40v-90c0-5.522,4.478-10,10-10h180c5.522,0,10,4.478,10,10V391z"/></g></g><g id="Layer_1"/></svg>