<?xml version="1.0" ?><svg viewBox="0 0 24 24" xmlns="http://www.w3.org/2000/svg"><title/><g data-name="reciept alternatif" id="reciept_alternatif"><path d="M22.77,22.62c.36-.45.23,1,.23-19.62a2,2,0,0,0-2-2H3A2,2,0,0,0,1,3c0,20,0,19,.06,19.3A1,1,0,0,0,2,23c.45,0,.47-.1,2.5-1.72,2.88,2.3,2.13,2.3,5,0,2.86,2.29,2.11,2.32,5,0,2.89,2.31,2.14,2.29,5,0C20.78,22.3,21.93,23.68,22.77,22.62ZM17,20.72c-2.86-2.29-2.11-2.32-5,0l-1.88-1.5a1,1,0,0,0-1.25,0C6.73,21,7.1,20.79,6.79,20.54c-2.42-1.94-2.08-2-3.79-.61V3H21V19.91C19.24,18.51,19.66,18.6,17,20.72Z"/><path d="M18,6H10a1,1,0,0,0,0,2h8A1,1,0,0,0,18,6Z"/><path d="M6,6A1,1,0,0,0,6,8,1,1,0,0,0,6,6Z"/><path d="M18,10H10a1,1,0,0,0,0,2h8A1,1,0,0,0,18,10Z"/><path d="M6,10a1,1,0,0,0,0,2A1,1,0,0,0,6,10Z"/><path d="M18,14H10a1,1,0,0,0,0,2h8A1,1,0,0,0,18,14Z"/><path d="M6,14a1,1,0,0,0,0,2A1,1,0,0,0,6,14Z"/></g></svg>