<?xml version="1.0" ?><!DOCTYPE svg  PUBLIC '-//W3C//DTD SVG 1.1//EN'  'http://www.w3.org/Graphics/SVG/1.1/DTD/svg11.dtd'><svg enable-background="new 0 0 32 32" height="32px" version="1.1" viewBox="0 0 32 32" width="32px" xml:space="preserve" xmlns="http://www.w3.org/2000/svg" xmlns:xlink="http://www.w3.org/1999/xlink"><g id="Emoji_x2C__smiley_x2C__smile_x2C__be_embarrassed_x2C__embarrassment"><circle cx="16" cy="16" fill="#FFF176" id="XMLID_505_" r="13.5"/><path d="M4.038,22.244C3.694,21.054,3.5,19.801,3.5,18.5C3.5,11.044,9.544,5,17,5c5.201,0,9.708,2.946,11.963,7.256   C27.338,6.624,22.155,2.5,16,2.5C8.544,2.5,2.5,8.544,2.5,16C2.5,18.255,3.06,20.375,4.038,22.244z" fill="#FFF5A2"/><path d="M29,14.5C29,21.956,22.956,28,15.5,28c-5.664,0-10.505-3.491-12.509-8.436C4.557,25.288,9.78,29.5,16,29.5   c7.456,0,13.5-6.044,13.5-13.5c0-1.792-0.357-3.5-0.991-5.064C28.82,12.073,29,13.265,29,14.5z" fill="#E6D96A"/><path d="M16,30C8.28,30,2,23.72,2,16S8.28,2,16,2s14,6.28,14,14S23.72,30,16,30z M16,3   C8.832,3,3,8.832,3,16s5.832,13,13,13s13-5.832,13-13S23.168,3,16,3z" fill="#455A64" id="XMLID_506_"/><path d="M16,25c-5.269,0-6.893-3.647-6.959-3.803c-0.109-0.254,0.009-0.548,0.263-0.657   c0.251-0.108,0.546,0.008,0.656,0.261l0,0C10.016,20.932,11.414,24,16,24s5.984-3.068,6.041-3.199   c0.111-0.252,0.406-0.364,0.657-0.259c0.253,0.109,0.37,0.402,0.261,0.655C22.893,21.353,21.269,25,16,25z" fill="#455A64" id="XMLID_509_"/><path d="M8.001,22c-0.276,0-0.5-0.224-0.5-0.5s0.224-0.5,0.5-0.5c0.947,0,1.6-0.8,1.606-0.809   c0.17-0.218,0.483-0.256,0.702-0.085c0.217,0.17,0.256,0.484,0.085,0.702C10.357,20.856,9.446,22,8.001,22z" fill="#455A64" id="XMLID_510_"/><path d="M24.001,22c-1.444,0-2.355-1.144-2.394-1.191c-0.17-0.218-0.132-0.532,0.085-0.702   c0.217-0.169,0.53-0.132,0.7,0.084c0.01,0.012,0.661,0.81,1.608,0.81c0.276,0,0.5,0.224,0.5,0.5S24.278,22,24.001,22z" fill="#455A64" id="XMLID_511_"/><path d="M23.5,10.999c-0.104,0-0.208-0.032-0.297-0.098C23.191,10.893,21.957,10,20.001,10   c-0.276,0-0.5-0.224-0.5-0.5s0.224-0.5,0.5-0.5c2.305,0,3.74,1.055,3.8,1.1c0.22,0.165,0.265,0.477,0.101,0.698   C23.804,10.93,23.653,10.999,23.5,10.999z" fill="#455A64" id="XMLID_512_"/><path d="M8.5,11c-0.155,0-0.307-0.071-0.405-0.206c-0.163-0.223-0.113-0.536,0.11-0.698   C8.268,10.051,9.738,9,12,9c0.276,0,0.5,0.224,0.5,0.5S12.276,10,12,10c-1.94,0-3.193,0.896-3.206,0.904   C8.706,10.969,8.603,11,8.5,11z" fill="#455A64" id="XMLID_513_"/><ellipse cx="25" cy="18" fill="#FF8A80" id="XMLID_514_" rx="3" ry="2"/><ellipse cx="7" cy="18" fill="#FF8A80" id="XMLID_515_" rx="3" ry="2"/><path d="M23.5,15.5c-0.276,0-0.5-0.224-0.5-0.5c0-1.057-0.897-1.917-2-1.917s-2,0.86-2,1.917   c0,0.276-0.224,0.5-0.5,0.5S18,15.276,18,15c0-1.608,1.346-2.917,3-2.917s3,1.309,3,2.917C24,15.276,23.776,15.5,23.5,15.5z" fill="#455A64" id="XMLID_516_"/><path d="M13.5,15.5c-0.276,0-0.5-0.224-0.5-0.5c0-1.057-0.897-1.917-2-1.917S9,13.943,9,15   c0,0.276-0.224,0.5-0.5,0.5S8,15.276,8,15c0-1.608,1.346-2.917,3-2.917s3,1.309,3,2.917C14,15.276,13.776,15.5,13.5,15.5z" fill="#455A64" id="XMLID_517_"/></g></svg>